<mxfile host="app.diagrams.net" modified="2023-05-25T08:05:57.315Z" agent="Mozilla/5.0 (Windows NT 10.0; Win64; x64) AppleWebKit/537.36 (KHTML, like Gecko) Chrome/113.0.0.0 Safari/537.36" etag="1VfM4DbmnjbC2qjQMETn" version="21.3.2" type="github">
  <diagram name="第 1 页" id="X0zgrUVf8Tr-ZXDAozE8">
    <mxGraphModel dx="4944" dy="-845" grid="0" gridSize="10" guides="1" tooltips="1" connect="1" arrows="1" fold="1" page="1" pageScale="1" pageWidth="827" pageHeight="1169" math="0" shadow="0">
      <root>
        <mxCell id="0" />
        <mxCell id="1" parent="0" />
        <mxCell id="dg8vj9RYwA9n3tDSrNpJ-1" style="edgeStyle=orthogonalEdgeStyle;rounded=0;orthogonalLoop=1;jettySize=auto;html=1;exitX=0.5;exitY=1;exitDx=0;exitDy=0;exitPerimeter=0;entryX=0.5;entryY=0;entryDx=0;entryDy=0;" edge="1" parent="1" source="dg8vj9RYwA9n3tDSrNpJ-2" target="dg8vj9RYwA9n3tDSrNpJ-6">
          <mxGeometry relative="1" as="geometry" />
        </mxCell>
        <mxCell id="dg8vj9RYwA9n3tDSrNpJ-2" value="开始" style="strokeWidth=2;html=1;shape=mxgraph.flowchart.terminator;whiteSpace=wrap;fontSize=18;" vertex="1" parent="1">
          <mxGeometry x="-1476" y="2406" width="116" height="68" as="geometry" />
        </mxCell>
        <mxCell id="dg8vj9RYwA9n3tDSrNpJ-3" style="edgeStyle=orthogonalEdgeStyle;rounded=0;orthogonalLoop=1;jettySize=auto;html=1;exitX=0.5;exitY=1;exitDx=0;exitDy=0;entryX=0.5;entryY=0;entryDx=0;entryDy=0;entryPerimeter=0;" edge="1" parent="1" source="dg8vj9RYwA9n3tDSrNpJ-4" target="dg8vj9RYwA9n3tDSrNpJ-9">
          <mxGeometry relative="1" as="geometry" />
        </mxCell>
        <mxCell id="dg8vj9RYwA9n3tDSrNpJ-4" value="输入用户账号密码" style="shape=parallelogram;html=1;strokeWidth=2;perimeter=parallelogramPerimeter;whiteSpace=wrap;rounded=1;arcSize=12;size=0.23;fontSize=15;" vertex="1" parent="1">
          <mxGeometry x="-1505" y="2658" width="174" height="77" as="geometry" />
        </mxCell>
        <mxCell id="dg8vj9RYwA9n3tDSrNpJ-5" style="edgeStyle=orthogonalEdgeStyle;rounded=0;orthogonalLoop=1;jettySize=auto;html=1;exitX=0.5;exitY=1;exitDx=0;exitDy=0;entryX=0.5;entryY=0;entryDx=0;entryDy=0;" edge="1" parent="1" source="dg8vj9RYwA9n3tDSrNpJ-6" target="dg8vj9RYwA9n3tDSrNpJ-4">
          <mxGeometry relative="1" as="geometry" />
        </mxCell>
        <mxCell id="dg8vj9RYwA9n3tDSrNpJ-6" value="用户登录" style="rounded=0;whiteSpace=wrap;html=1;fontSize=18;" vertex="1" parent="1">
          <mxGeometry x="-1478" y="2536" width="120" height="60" as="geometry" />
        </mxCell>
        <mxCell id="dg8vj9RYwA9n3tDSrNpJ-7" style="edgeStyle=orthogonalEdgeStyle;rounded=0;orthogonalLoop=1;jettySize=auto;html=1;exitX=0.5;exitY=1;exitDx=0;exitDy=0;exitPerimeter=0;entryX=0.5;entryY=0;entryDx=0;entryDy=0;entryPerimeter=0;" edge="1" parent="1" source="dg8vj9RYwA9n3tDSrNpJ-9" target="dg8vj9RYwA9n3tDSrNpJ-12">
          <mxGeometry relative="1" as="geometry" />
        </mxCell>
        <mxCell id="dg8vj9RYwA9n3tDSrNpJ-8" value="&lt;font style=&quot;font-size: 18px;&quot;&gt;是&lt;/font&gt;" style="edgeStyle=orthogonalEdgeStyle;rounded=0;orthogonalLoop=1;jettySize=auto;html=1;exitX=1;exitY=0.5;exitDx=0;exitDy=0;exitPerimeter=0;entryX=0;entryY=0.5;entryDx=0;entryDy=0;" edge="1" parent="1" source="dg8vj9RYwA9n3tDSrNpJ-9" target="dg8vj9RYwA9n3tDSrNpJ-14">
          <mxGeometry relative="1" as="geometry" />
        </mxCell>
        <mxCell id="dg8vj9RYwA9n3tDSrNpJ-9" value="&lt;font style=&quot;font-size: 15px;&quot;&gt;用户名或密码是否为空&lt;/font&gt;" style="strokeWidth=2;html=1;shape=mxgraph.flowchart.decision;whiteSpace=wrap;" vertex="1" parent="1">
          <mxGeometry x="-1521.75" y="2790" width="207.5" height="104" as="geometry" />
        </mxCell>
        <mxCell id="dg8vj9RYwA9n3tDSrNpJ-10" value="否" style="edgeStyle=orthogonalEdgeStyle;rounded=0;orthogonalLoop=1;jettySize=auto;html=1;exitX=1;exitY=0.5;exitDx=0;exitDy=0;exitPerimeter=0;entryX=0.5;entryY=1;entryDx=0;entryDy=0;fontSize=18;" edge="1" parent="1" source="dg8vj9RYwA9n3tDSrNpJ-12" target="dg8vj9RYwA9n3tDSrNpJ-14">
          <mxGeometry relative="1" as="geometry" />
        </mxCell>
        <mxCell id="dg8vj9RYwA9n3tDSrNpJ-11" style="edgeStyle=orthogonalEdgeStyle;rounded=0;orthogonalLoop=1;jettySize=auto;html=1;exitX=0.5;exitY=1;exitDx=0;exitDy=0;exitPerimeter=0;entryX=0.5;entryY=0;entryDx=0;entryDy=0;" edge="1" parent="1" source="dg8vj9RYwA9n3tDSrNpJ-12" target="dg8vj9RYwA9n3tDSrNpJ-16">
          <mxGeometry relative="1" as="geometry" />
        </mxCell>
        <mxCell id="dg8vj9RYwA9n3tDSrNpJ-12" value="&lt;font style=&quot;font-size: 15px;&quot;&gt;用户名密码是否正确&lt;/font&gt;" style="strokeWidth=2;html=1;shape=mxgraph.flowchart.decision;whiteSpace=wrap;" vertex="1" parent="1">
          <mxGeometry x="-1525" y="2949" width="214" height="114" as="geometry" />
        </mxCell>
        <mxCell id="dg8vj9RYwA9n3tDSrNpJ-13" style="edgeStyle=orthogonalEdgeStyle;rounded=0;orthogonalLoop=1;jettySize=auto;html=1;exitX=0.5;exitY=0;exitDx=0;exitDy=0;entryX=1;entryY=0.5;entryDx=0;entryDy=0;" edge="1" parent="1" source="dg8vj9RYwA9n3tDSrNpJ-14" target="dg8vj9RYwA9n3tDSrNpJ-4">
          <mxGeometry relative="1" as="geometry">
            <Array as="points">
              <mxPoint x="-1014" y="2697" />
            </Array>
          </mxGeometry>
        </mxCell>
        <mxCell id="dg8vj9RYwA9n3tDSrNpJ-14" value="返回错误信息" style="rounded=0;whiteSpace=wrap;html=1;fontSize=18;" vertex="1" parent="1">
          <mxGeometry x="-1098" y="2804" width="167" height="76" as="geometry" />
        </mxCell>
        <mxCell id="dg8vj9RYwA9n3tDSrNpJ-15" style="edgeStyle=orthogonalEdgeStyle;rounded=0;orthogonalLoop=1;jettySize=auto;html=1;exitX=0.5;exitY=1;exitDx=0;exitDy=0;entryX=0.5;entryY=0;entryDx=0;entryDy=0;entryPerimeter=0;" edge="1" parent="1" source="dg8vj9RYwA9n3tDSrNpJ-16" target="dg8vj9RYwA9n3tDSrNpJ-17">
          <mxGeometry relative="1" as="geometry" />
        </mxCell>
        <mxCell id="dg8vj9RYwA9n3tDSrNpJ-16" value="登录跳转到首页" style="rounded=0;whiteSpace=wrap;html=1;fontSize=18;" vertex="1" parent="1">
          <mxGeometry x="-1483.5" y="3155" width="131.5" height="68" as="geometry" />
        </mxCell>
        <mxCell id="dg8vj9RYwA9n3tDSrNpJ-17" value="结束" style="strokeWidth=2;html=1;shape=mxgraph.flowchart.terminator;whiteSpace=wrap;fontSize=18;" vertex="1" parent="1">
          <mxGeometry x="-1475.75" y="3295" width="116" height="68" as="geometry" />
        </mxCell>
      </root>
    </mxGraphModel>
  </diagram>
</mxfile>
